<svg xmlns="http://www.w3.org/2000/svg" xmlns:xlink="http://www.w3.org/1999/xlink" width="2000" zoomAndPan="magnify" viewBox="0 0 1500 1499.999933" height="2000" preserveAspectRatio="xMidYMid meet" version="1.0"><defs><g/></defs><g fill="#000000" fill-opacity="1"><g transform="translate(356.024489, 712.499919)"><g><path d="M 142.328125 -33.4375 C 143.460938 -29.4375 142.882812 -25.148438 140.59375 -20.578125 C 138.3125 -16.003906 134.882812 -13.289062 130.3125 -12.4375 C 114.882812 -9.863281 99.597656 -10.078125 84.453125 -13.078125 C 69.304688 -16.078125 55.300781 -22.578125 42.4375 -32.578125 C 29.863281 -42.578125 20.929688 -55.363281 15.640625 -70.9375 C 10.359375 -86.519531 9.429688 -102.171875 12.859375 -117.890625 C 16.003906 -131.890625 22.578125 -144.03125 32.578125 -154.3125 C 42.578125 -164.601562 54.007812 -172.609375 66.875 -178.328125 C 78.300781 -183.753906 90.300781 -188.039062 102.875 -191.1875 C 115.457031 -194.332031 128.035156 -195.332031 140.609375 -194.1875 C 145.460938 -193.613281 149.53125 -191.828125 152.8125 -188.828125 C 156.101562 -185.828125 157.75 -181.898438 157.75 -177.046875 C 157.75 -172.753906 156.101562 -168.75 152.8125 -165.03125 C 149.53125 -161.320312 145.460938 -159.609375 140.609375 -159.890625 C 131.460938 -160.753906 122.457031 -160.328125 113.59375 -158.609375 C 104.738281 -156.898438 96.164062 -154.1875 87.875 -150.46875 C 83.019531 -148.175781 78.234375 -145.742188 73.515625 -143.171875 C 68.804688 -140.609375 64.734375 -137.753906 61.296875 -134.609375 C 57.585938 -131.179688 54.515625 -127.75 52.078125 -124.3125 C 49.648438 -120.882812 47.863281 -116.882812 46.71875 -112.3125 C 45.582031 -107.738281 45.15625 -102.878906 45.4375 -97.734375 C 45.726562 -92.585938 46.65625 -87.515625 48.21875 -82.515625 C 49.789062 -77.515625 52.003906 -72.941406 54.859375 -68.796875 C 57.722656 -64.660156 61.15625 -61.160156 65.15625 -58.296875 C 73.445312 -52.296875 82.519531 -48.222656 92.375 -46.078125 C 102.238281 -43.941406 111.882812 -43.726562 121.3125 -45.4375 C 125.882812 -46.289062 130.171875 -45.71875 134.171875 -43.71875 C 138.171875 -41.71875 140.890625 -38.289062 142.328125 -33.4375 Z M 142.328125 -33.4375 "/></g></g><g transform="translate(518.067981, 712.499919)"><g><path d="M 50.15625 -11.578125 C 40.4375 -15.859375 32.789062 -21.785156 27.21875 -29.359375 C 21.644531 -36.929688 17.785156 -45.289062 15.640625 -54.4375 C 13.503906 -63.582031 12.863281 -73.082031 13.71875 -82.9375 C 14.570312 -92.800781 16.570312 -102.304688 19.71875 -111.453125 C 22.289062 -118.597656 25.21875 -126.03125 28.5 -133.75 C 31.789062 -141.46875 35.722656 -148.613281 40.296875 -155.1875 C 44.867188 -161.757812 50.296875 -167.398438 56.578125 -172.109375 C 62.867188 -176.828125 70.300781 -179.898438 78.875 -181.328125 C 87.738281 -182.753906 96.671875 -183.253906 105.671875 -182.828125 C 114.671875 -182.398438 123.601562 -181.472656 132.46875 -180.046875 C 136.46875 -179.472656 140.320312 -178.539062 144.03125 -177.25 C 147.75 -175.96875 151.46875 -174.613281 155.1875 -173.1875 C 155.46875 -177.46875 157.394531 -181.035156 160.96875 -183.890625 C 164.539062 -186.753906 168.328125 -188.1875 172.328125 -188.1875 C 177.179688 -188.1875 181.109375 -186.539062 184.109375 -183.25 C 187.117188 -179.96875 188.910156 -176.039062 189.484375 -171.46875 C 190.910156 -158.320312 191.550781 -145.175781 191.40625 -132.03125 C 191.257812 -118.882812 190.828125 -105.738281 190.109375 -92.59375 C 189.398438 -79.445312 188.832031 -66.300781 188.40625 -53.15625 C 187.976562 -40.007812 188.050781 -26.863281 188.625 -13.71875 C 188.90625 -8.289062 187.257812 -4.21875 183.6875 -1.5 C 180.113281 1.21875 176.179688 2.578125 171.890625 2.578125 C 167.609375 2.578125 163.679688 1.21875 160.109375 -1.5 C 156.535156 -4.21875 154.609375 -8.289062 154.328125 -13.71875 C 138.035156 -6.851562 120.742188 -2.921875 102.453125 -1.921875 C 84.160156 -0.921875 66.726562 -4.140625 50.15625 -11.578125 Z M 53.15625 -104.59375 C 51.4375 -99.445312 49.863281 -93.585938 48.4375 -87.015625 C 47.007812 -80.441406 46.582031 -74.15625 47.15625 -68.15625 C 47.726562 -62.15625 49.582031 -56.65625 52.71875 -51.65625 C 55.863281 -46.65625 61.007812 -43.15625 68.15625 -41.15625 C 82.726562 -36.582031 97.375 -35.296875 112.09375 -37.296875 C 126.8125 -39.296875 140.601562 -44.441406 153.46875 -52.734375 C 154.613281 -66.734375 155.539062 -80.304688 156.25 -93.453125 C 156.96875 -106.597656 157.179688 -119.882812 156.890625 -133.3125 C 152.035156 -136.457031 147.109375 -139.242188 142.109375 -141.671875 C 137.109375 -144.109375 131.609375 -145.753906 125.609375 -146.609375 C 119.597656 -147.460938 113.234375 -148.101562 106.515625 -148.53125 C 99.804688 -148.96875 93.304688 -148.898438 87.015625 -148.328125 C 86.453125 -148.328125 84.953125 -147.96875 82.515625 -147.25 C 80.085938 -146.539062 78.734375 -146.039062 78.453125 -145.75 C 75.585938 -144.320312 73.015625 -142.035156 70.734375 -138.890625 C 67.015625 -133.742188 63.722656 -128.238281 60.859375 -122.375 C 58.003906 -116.519531 55.4375 -110.59375 53.15625 -104.59375 Z M 53.15625 -104.59375 "/></g></g><g transform="translate(731.12516, 712.499919)"><g><path d="M 45.875 -336.515625 C 51.007812 -336.515625 55.003906 -334.796875 57.859375 -331.359375 C 60.722656 -327.929688 62.441406 -323.929688 63.015625 -319.359375 C 65.867188 -292.210938 67.4375 -265.0625 67.71875 -237.90625 C 68.007812 -210.757812 67.65625 -183.613281 66.65625 -156.46875 C 65.65625 -129.320312 64.15625 -102.171875 62.15625 -75.015625 C 60.15625 -47.867188 58.15625 -20.863281 56.15625 6 C 55.582031 10.863281 53.796875 14.9375 50.796875 18.21875 C 47.796875 21.507812 43.867188 23.15625 39.015625 23.15625 C 34.722656 23.15625 30.71875 21.507812 27 18.21875 C 23.289062 14.9375 21.578125 10.863281 21.859375 6 C 23.859375 -20.863281 25.929688 -47.867188 28.078125 -75.015625 C 30.222656 -102.171875 31.796875 -129.320312 32.796875 -156.46875 C 33.796875 -183.613281 34.148438 -210.757812 33.859375 -237.90625 C 33.578125 -265.0625 32.007812 -292.210938 29.15625 -319.359375 C 28.582031 -323.929688 30.148438 -327.929688 33.859375 -331.359375 C 37.578125 -334.796875 41.582031 -336.515625 45.875 -336.515625 Z M 45.875 -336.515625 "/></g></g><g transform="translate(823.292754, 712.499919)"><g><path d="M 56.15625 5.578125 C 52.15625 7.003906 47.796875 6.570312 43.078125 4.28125 C 38.367188 2 35.726562 -1.425781 35.15625 -6 C 31.15625 -31.144531 28.65625 -56.078125 27.65625 -80.796875 C 26.65625 -105.523438 26.15625 -130.460938 26.15625 -155.609375 C 26.15625 -159.898438 27.296875 -163.328125 29.578125 -165.890625 C 31.867188 -168.460938 34.582031 -170.175781 37.71875 -171.03125 C 40.863281 -171.894531 44.148438 -172.039062 47.578125 -171.46875 C 51.015625 -170.894531 53.875 -169.46875 56.15625 -167.1875 C 62.726562 -172.613281 69.726562 -177.328125 77.15625 -181.328125 C 84.59375 -185.328125 92.097656 -187.96875 99.671875 -189.25 C 107.242188 -190.539062 114.742188 -190.113281 122.171875 -187.96875 C 129.597656 -185.832031 136.597656 -181.332031 143.171875 -174.46875 C 148.609375 -168.757812 153.328125 -162.6875 157.328125 -156.25 C 161.328125 -149.820312 164.898438 -143.035156 168.046875 -135.890625 C 172.328125 -146.753906 178.328125 -156.753906 186.046875 -165.890625 C 193.765625 -175.035156 203.625 -181.179688 215.625 -184.328125 C 224.488281 -186.617188 231.488281 -186.117188 236.625 -182.828125 C 241.769531 -179.546875 246.628906 -174.472656 251.203125 -167.609375 C 256.066406 -160.460938 260.566406 -153.175781 264.703125 -145.75 C 268.847656 -138.320312 272.78125 -130.75 276.5 -123.03125 C 280.21875 -115.3125 283.789062 -107.59375 287.21875 -99.875 C 290.644531 -92.164062 294.070312 -84.59375 297.5 -77.15625 C 301.5 -68.875 305 -60.660156 308 -52.515625 C 311.007812 -44.367188 312.941406 -35.722656 313.796875 -26.578125 C 314.367188 -21.722656 312.722656 -17.648438 308.859375 -14.359375 C 305.003906 -11.078125 300.929688 -9.4375 296.640625 -9.4375 C 291.785156 -9.4375 287.859375 -11.078125 284.859375 -14.359375 C 281.859375 -17.648438 280.070312 -21.722656 279.5 -26.578125 C 278.925781 -33.429688 277.140625 -40.070312 274.140625 -46.5 C 271.140625 -52.9375 268.210938 -59.300781 265.359375 -65.59375 C 262.210938 -72.164062 259.140625 -78.878906 256.140625 -85.734375 C 253.140625 -92.597656 250.066406 -99.316406 246.921875 -105.890625 C 243.773438 -112.460938 240.414062 -119.035156 236.84375 -125.609375 C 233.269531 -132.179688 229.484375 -138.609375 225.484375 -144.890625 C 224.910156 -145.753906 224.335938 -146.613281 223.765625 -147.46875 C 223.191406 -148.320312 222.625 -149.175781 222.0625 -150.03125 C 216.34375 -146.894531 212.195312 -143.894531 209.625 -141.03125 C 207.050781 -138.175781 204.625 -134.320312 202.34375 -129.46875 C 200.34375 -125.175781 198.695312 -120.671875 197.40625 -115.953125 C 196.125 -111.242188 195.050781 -106.457031 194.1875 -101.59375 C 192.476562 -92.445312 191.191406 -82.875 190.328125 -72.875 C 189.765625 -65.445312 189.835938 -58.300781 190.546875 -51.4375 C 191.265625 -44.582031 190.910156 -37.4375 189.484375 -30 C 188.617188 -25.4375 185.972656 -22.007812 181.546875 -19.71875 C 177.117188 -17.4375 172.757812 -16.863281 168.46875 -18 C 164.46875 -19.144531 161.535156 -21.21875 159.671875 -24.21875 C 157.816406 -27.21875 156.609375 -30.71875 156.046875 -34.71875 C 154.898438 -43.863281 153.609375 -53.296875 152.171875 -63.015625 C 150.742188 -72.734375 148.882812 -82.378906 146.59375 -91.953125 C 144.3125 -101.523438 141.382812 -110.8125 137.8125 -119.8125 C 134.25 -128.8125 129.609375 -137.171875 123.890625 -144.890625 C 119.890625 -150.035156 115.816406 -153.460938 111.671875 -155.171875 C 107.523438 -156.890625 102.453125 -156.175781 96.453125 -153.03125 C 89.878906 -149.601562 83.445312 -145.457031 77.15625 -140.59375 C 70.875 -135.738281 65.300781 -130.3125 60.4375 -124.3125 C 60.726562 -106.019531 61.375 -87.800781 62.375 -69.65625 C 63.375 -51.507812 65.300781 -33.4375 68.15625 -15.4375 C 68.726562 -10.570312 68.082031 -6.210938 66.21875 -2.359375 C 64.363281 1.492188 61.007812 4.140625 56.15625 5.578125 Z M 56.15625 5.578125 "/></g></g></g><g fill="#000000" fill-opacity="1"><g transform="translate(260.211998, 1058.999889)"><g><path d="M 35.578125 -95.171875 C 28.148438 -100.597656 22.863281 -107.382812 19.71875 -115.53125 C 16.570312 -123.675781 16.429688 -132.320312 19.296875 -141.46875 C 22.148438 -149.75 26.578125 -157.175781 32.578125 -163.75 C 38.578125 -170.320312 45.4375 -175.609375 53.15625 -179.609375 C 61.726562 -184.179688 70.875 -187.753906 80.59375 -190.328125 C 90.3125 -192.898438 100.171875 -194.328125 110.171875 -194.609375 C 120.171875 -194.898438 130.097656 -193.972656 139.953125 -191.828125 C 149.816406 -189.691406 159.179688 -186.335938 168.046875 -181.765625 C 172.898438 -179.191406 175.613281 -175.757812 176.1875 -171.46875 C 176.757812 -167.1875 175.972656 -163.1875 173.828125 -159.46875 C 171.679688 -155.75 168.460938 -153.03125 164.171875 -151.3125 C 159.890625 -149.601562 155.320312 -150.035156 150.46875 -152.609375 C 143.601562 -156.328125 135.882812 -158.753906 127.3125 -159.890625 C 118.738281 -161.035156 110.09375 -161.109375 101.375 -160.109375 C 92.664062 -159.109375 84.453125 -156.894531 76.734375 -153.46875 C 69.015625 -150.039062 62.582031 -145.609375 57.4375 -140.171875 C 56.007812 -138.742188 55.082031 -137.742188 54.65625 -137.171875 C 54.226562 -136.609375 53.585938 -135.320312 52.734375 -133.3125 L 51.875 -128.609375 C 52.726562 -126.035156 53.441406 -124.460938 54.015625 -123.890625 C 59.734375 -120.171875 65.660156 -117.8125 71.796875 -116.8125 C 77.941406 -115.8125 84.160156 -115.171875 90.453125 -114.890625 C 99.304688 -114.316406 108.378906 -113.816406 117.671875 -113.390625 C 126.960938 -112.960938 135.960938 -111.742188 144.671875 -109.734375 C 153.390625 -107.734375 161.460938 -104.445312 168.890625 -99.875 C 176.328125 -95.3125 182.617188 -88.597656 187.765625 -79.734375 C 193.472656 -69.734375 196.113281 -59.375 195.6875 -48.65625 C 195.257812 -37.9375 191.046875 -28.289062 183.046875 -19.71875 C 175.046875 -11.144531 165.757812 -5.210938 155.1875 -1.921875 C 144.613281 1.359375 133.894531 3.710938 123.03125 5.140625 C 113.3125 6.285156 103.234375 6.570312 92.796875 6 C 82.367188 5.425781 72.367188 3.78125 62.796875 1.0625 C 53.222656 -1.644531 44.289062 -5.785156 36 -11.359375 C 27.71875 -16.929688 20.863281 -24.289062 15.4375 -33.4375 C 12.863281 -38.007812 12.429688 -42.367188 14.140625 -46.515625 C 15.859375 -50.660156 18.503906 -53.800781 22.078125 -55.9375 C 25.648438 -58.082031 29.648438 -58.867188 34.078125 -58.296875 C 38.503906 -57.722656 42.148438 -55.148438 45.015625 -50.578125 C 49.015625 -44.003906 54.585938 -39.003906 61.734375 -35.578125 C 68.878906 -32.148438 76.664062 -29.789062 85.09375 -28.5 C 93.519531 -27.21875 102.019531 -26.929688 110.59375 -27.640625 C 119.164062 -28.359375 126.882812 -29.429688 133.75 -30.859375 C 137.46875 -31.722656 141.253906 -32.9375 145.109375 -34.5 C 148.960938 -36.070312 152.25 -38 154.96875 -40.28125 C 157.6875 -42.570312 159.613281 -45.21875 160.75 -48.21875 C 161.894531 -51.226562 161.753906 -54.585938 160.328125 -58.296875 C 157.472656 -65.441406 152.6875 -70.585938 145.96875 -73.734375 C 139.25 -76.878906 132.175781 -78.738281 124.75 -79.3125 C 117.3125 -79.875 109.734375 -80.15625 102.015625 -80.15625 C 94.304688 -80.15625 86.59375 -80.515625 78.875 -81.234375 C 71.15625 -81.953125 63.582031 -83.3125 56.15625 -85.3125 C 48.726562 -87.3125 41.867188 -90.597656 35.578125 -95.171875 Z M 35.578125 -95.171875 "/></g></g><g transform="translate(468.982314, 1058.999889)"><g><path d="M 66.015625 123.453125 C 66.304688 128.890625 64.804688 132.960938 61.515625 135.671875 C 58.222656 138.390625 54.429688 139.75 50.140625 139.75 C 45.859375 139.75 41.859375 138.390625 38.140625 135.671875 C 34.429688 132.960938 32.4375 128.890625 32.15625 123.453125 C 29.007812 77.734375 27.148438 32.082031 26.578125 -13.5 C 26.003906 -59.082031 24.71875 -104.738281 22.71875 -150.46875 C 18.71875 -156.75 18.429688 -162.75 21.859375 -168.46875 C 21.578125 -171.613281 21.363281 -174.539062 21.21875 -177.25 C 21.070312 -179.96875 20.859375 -182.898438 20.578125 -186.046875 C 20.285156 -191.191406 21.710938 -195.117188 24.859375 -197.828125 C 28.003906 -200.546875 31.648438 -202.046875 35.796875 -202.328125 C 39.941406 -202.617188 43.867188 -201.550781 47.578125 -199.125 C 51.296875 -196.695312 53.582031 -193.050781 54.4375 -188.1875 C 59.300781 -190.476562 63.945312 -192.625 68.375 -194.625 C 72.800781 -196.625 77.445312 -198.625 82.3125 -200.625 C 86.3125 -202.332031 90.738281 -203.972656 95.59375 -205.546875 C 100.457031 -207.117188 105.457031 -208.332031 110.59375 -209.1875 C 115.738281 -210.050781 120.8125 -210.484375 125.8125 -210.484375 C 130.8125 -210.484375 135.457031 -209.625 139.75 -207.90625 C 148.320312 -204.476562 155.394531 -199.332031 160.96875 -192.46875 C 166.539062 -185.613281 171.1875 -178.039062 174.90625 -169.75 C 178.332031 -161.75 181.617188 -153.675781 184.765625 -145.53125 C 187.910156 -137.382812 189.625 -129.023438 189.90625 -120.453125 C 190.1875 -111.597656 188.898438 -103.3125 186.046875 -95.59375 C 183.191406 -87.875 179.257812 -80.867188 174.25 -74.578125 C 169.25 -68.296875 163.320312 -62.722656 156.46875 -57.859375 C 149.613281 -53.003906 142.328125 -48.863281 134.609375 -45.4375 C 126.316406 -41.726562 117.738281 -38.441406 108.875 -35.578125 C 100.019531 -32.722656 91.019531 -30.863281 81.875 -30 C 77.875 -29.4375 74.085938 -29.582031 70.515625 -30.4375 C 66.941406 -31.289062 63.582031 -32.429688 60.4375 -33.859375 C 61.007812 -7.285156 61.648438 19 62.359375 45 C 63.078125 71.007812 64.296875 97.160156 66.015625 123.453125 Z M 57.015625 -151.328125 C 57.585938 -138.179688 58.015625 -125.101562 58.296875 -112.09375 C 58.585938 -99.09375 59.019531 -86.019531 59.59375 -72.875 C 61.300781 -71.726562 63.007812 -70.65625 64.71875 -69.65625 C 66.4375 -68.65625 68.296875 -67.585938 70.296875 -66.453125 C 72.585938 -65.015625 74.445312 -64.222656 75.875 -64.078125 C 77.300781 -63.941406 79.585938 -64.160156 82.734375 -64.734375 C 89.023438 -66.160156 95.3125 -67.660156 101.59375 -69.234375 C 107.882812 -70.804688 113.890625 -73.019531 119.609375 -75.875 C 125.035156 -78.445312 130.175781 -81.234375 135.03125 -84.234375 C 139.894531 -87.234375 144.328125 -91.164062 148.328125 -96.03125 C 150.898438 -99.164062 152.898438 -102.804688 154.328125 -106.953125 C 155.753906 -111.097656 156.179688 -115.597656 155.609375 -120.453125 C 155.328125 -126.171875 153.96875 -132.03125 151.53125 -138.03125 C 149.101562 -144.03125 146.75 -149.601562 144.46875 -154.75 C 143.039062 -157.320312 141.679688 -159.960938 140.390625 -162.671875 C 139.109375 -165.390625 137.609375 -167.894531 135.890625 -170.1875 C 133.316406 -172.757812 131.316406 -174.332031 129.890625 -174.90625 C 121.890625 -175.476562 114.882812 -175.046875 108.875 -173.609375 C 102.875 -172.179688 96.945312 -170.253906 91.09375 -167.828125 C 85.238281 -165.398438 79.453125 -162.753906 73.734375 -159.890625 C 68.015625 -157.035156 62.441406 -154.179688 57.015625 -151.328125 Z M 57.015625 -151.328125 "/></g></g><g transform="translate(672.179707, 1058.999889)"><g><path d="M 50.15625 -11.578125 C 40.4375 -15.859375 32.789062 -21.785156 27.21875 -29.359375 C 21.644531 -36.929688 17.785156 -45.289062 15.640625 -54.4375 C 13.503906 -63.582031 12.863281 -73.082031 13.71875 -82.9375 C 14.570312 -92.800781 16.570312 -102.304688 19.71875 -111.453125 C 22.289062 -118.597656 25.21875 -126.03125 28.5 -133.75 C 31.789062 -141.46875 35.722656 -148.613281 40.296875 -155.1875 C 44.867188 -161.757812 50.296875 -167.398438 56.578125 -172.109375 C 62.867188 -176.828125 70.300781 -179.898438 78.875 -181.328125 C 87.738281 -182.753906 96.671875 -183.253906 105.671875 -182.828125 C 114.671875 -182.398438 123.601562 -181.472656 132.46875 -180.046875 C 136.46875 -179.472656 140.320312 -178.539062 144.03125 -177.25 C 147.75 -175.96875 151.46875 -174.613281 155.1875 -173.1875 C 155.46875 -177.46875 157.394531 -181.035156 160.96875 -183.890625 C 164.539062 -186.753906 168.328125 -188.1875 172.328125 -188.1875 C 177.179688 -188.1875 181.109375 -186.539062 184.109375 -183.25 C 187.117188 -179.96875 188.910156 -176.039062 189.484375 -171.46875 C 190.910156 -158.320312 191.550781 -145.175781 191.40625 -132.03125 C 191.257812 -118.882812 190.828125 -105.738281 190.109375 -92.59375 C 189.398438 -79.445312 188.832031 -66.300781 188.40625 -53.15625 C 187.976562 -40.007812 188.050781 -26.863281 188.625 -13.71875 C 188.90625 -8.289062 187.257812 -4.21875 183.6875 -1.5 C 180.113281 1.21875 176.179688 2.578125 171.890625 2.578125 C 167.609375 2.578125 163.679688 1.21875 160.109375 -1.5 C 156.535156 -4.21875 154.609375 -8.289062 154.328125 -13.71875 C 138.035156 -6.851562 120.742188 -2.921875 102.453125 -1.921875 C 84.160156 -0.921875 66.726562 -4.140625 50.15625 -11.578125 Z M 53.15625 -104.59375 C 51.4375 -99.445312 49.863281 -93.585938 48.4375 -87.015625 C 47.007812 -80.441406 46.582031 -74.15625 47.15625 -68.15625 C 47.726562 -62.15625 49.582031 -56.65625 52.71875 -51.65625 C 55.863281 -46.65625 61.007812 -43.15625 68.15625 -41.15625 C 82.726562 -36.582031 97.375 -35.296875 112.09375 -37.296875 C 126.8125 -39.296875 140.601562 -44.441406 153.46875 -52.734375 C 154.613281 -66.734375 155.539062 -80.304688 156.25 -93.453125 C 156.96875 -106.597656 157.179688 -119.882812 156.890625 -133.3125 C 152.035156 -136.457031 147.109375 -139.242188 142.109375 -141.671875 C 137.109375 -144.109375 131.609375 -145.753906 125.609375 -146.609375 C 119.597656 -147.460938 113.234375 -148.101562 106.515625 -148.53125 C 99.804688 -148.96875 93.304688 -148.898438 87.015625 -148.328125 C 86.453125 -148.328125 84.953125 -147.96875 82.515625 -147.25 C 80.085938 -146.539062 78.734375 -146.039062 78.453125 -145.75 C 75.585938 -144.320312 73.015625 -142.035156 70.734375 -138.890625 C 67.015625 -133.742188 63.722656 -128.238281 60.859375 -122.375 C 58.003906 -116.519531 55.4375 -110.59375 53.15625 -104.59375 Z M 53.15625 -104.59375 "/></g></g><g transform="translate(885.236886, 1058.999889)"><g><path d="M 142.328125 -33.4375 C 143.460938 -29.4375 142.882812 -25.148438 140.59375 -20.578125 C 138.3125 -16.003906 134.882812 -13.289062 130.3125 -12.4375 C 114.882812 -9.863281 99.597656 -10.078125 84.453125 -13.078125 C 69.304688 -16.078125 55.300781 -22.578125 42.4375 -32.578125 C 29.863281 -42.578125 20.929688 -55.363281 15.640625 -70.9375 C 10.359375 -86.519531 9.429688 -102.171875 12.859375 -117.890625 C 16.003906 -131.890625 22.578125 -144.03125 32.578125 -154.3125 C 42.578125 -164.601562 54.007812 -172.609375 66.875 -178.328125 C 78.300781 -183.753906 90.300781 -188.039062 102.875 -191.1875 C 115.457031 -194.332031 128.035156 -195.332031 140.609375 -194.1875 C 145.460938 -193.613281 149.53125 -191.828125 152.8125 -188.828125 C 156.101562 -185.828125 157.75 -181.898438 157.75 -177.046875 C 157.75 -172.753906 156.101562 -168.75 152.8125 -165.03125 C 149.53125 -161.320312 145.460938 -159.609375 140.609375 -159.890625 C 131.460938 -160.753906 122.457031 -160.328125 113.59375 -158.609375 C 104.738281 -156.898438 96.164062 -154.1875 87.875 -150.46875 C 83.019531 -148.175781 78.234375 -145.742188 73.515625 -143.171875 C 68.804688 -140.609375 64.734375 -137.753906 61.296875 -134.609375 C 57.585938 -131.179688 54.515625 -127.75 52.078125 -124.3125 C 49.648438 -120.882812 47.863281 -116.882812 46.71875 -112.3125 C 45.582031 -107.738281 45.15625 -102.878906 45.4375 -97.734375 C 45.726562 -92.585938 46.65625 -87.515625 48.21875 -82.515625 C 49.789062 -77.515625 52.003906 -72.941406 54.859375 -68.796875 C 57.722656 -64.660156 61.15625 -61.160156 65.15625 -58.296875 C 73.445312 -52.296875 82.519531 -48.222656 92.375 -46.078125 C 102.238281 -43.941406 111.882812 -43.726562 121.3125 -45.4375 C 125.882812 -46.289062 130.171875 -45.71875 134.171875 -43.71875 C 138.171875 -41.71875 140.890625 -38.289062 142.328125 -33.4375 Z M 142.328125 -33.4375 "/></g></g><g transform="translate(1047.280378, 1058.999889)"><g><path d="M 32.15625 -166.328125 C 37.582031 -173.753906 44.082031 -180.328125 51.65625 -186.046875 C 59.226562 -191.765625 67.300781 -196.265625 75.875 -199.546875 C 84.445312 -202.835938 93.304688 -204.550781 102.453125 -204.6875 C 111.597656 -204.832031 120.742188 -203.050781 129.890625 -199.34375 C 138.742188 -195.90625 146.742188 -191.253906 153.890625 -185.390625 C 161.035156 -179.535156 166.609375 -172.039062 170.609375 -162.90625 C 173.753906 -156.039062 175.613281 -148.609375 176.1875 -140.609375 C 176.757812 -132.609375 174.613281 -125.320312 169.75 -118.75 C 165.46875 -112.75 160.253906 -108.175781 154.109375 -105.03125 C 147.960938 -101.882812 141.390625 -99.597656 134.390625 -98.171875 C 127.390625 -96.742188 120.242188 -96.03125 112.953125 -96.03125 C 105.671875 -96.03125 98.742188 -96.171875 92.171875 -96.453125 C 84.734375 -96.734375 77.367188 -97.300781 70.078125 -98.15625 C 62.796875 -99.019531 55.441406 -99.878906 48.015625 -100.734375 C 50.296875 -87.878906 54.863281 -76.445312 61.71875 -66.4375 C 68.582031 -56.4375 77.875 -48.863281 89.59375 -43.71875 C 92.738281 -42.582031 95.164062 -41.726562 96.875 -41.15625 C 97.738281 -40.863281 98.523438 -40.644531 99.234375 -40.5 C 99.953125 -40.363281 100.738281 -40.296875 101.59375 -40.296875 C 103.882812 -40.015625 105.816406 -39.800781 107.390625 -39.65625 C 108.960938 -39.507812 110.460938 -39.582031 111.890625 -39.875 C 113.890625 -40.15625 115.242188 -40.363281 115.953125 -40.5 C 116.671875 -40.644531 117.457031 -40.863281 118.3125 -41.15625 C 121.457031 -42.007812 124.242188 -43.007812 126.671875 -44.15625 C 129.097656 -45.300781 132.03125 -47.160156 135.46875 -49.734375 C 137.175781 -51.160156 139.457031 -53.300781 142.3125 -56.15625 C 145.175781 -59.007812 147.609375 -61.582031 149.609375 -63.875 C 152.460938 -67.875 155.960938 -70.585938 160.109375 -72.015625 C 164.253906 -73.441406 168.472656 -72.867188 172.765625 -70.296875 C 176.472656 -68.015625 179.113281 -64.515625 180.6875 -59.796875 C 182.257812 -55.085938 181.617188 -50.726562 178.765625 -46.71875 C 170.472656 -35.570312 160.679688 -26.070312 149.390625 -18.21875 C 138.109375 -10.363281 125.175781 -6.148438 110.59375 -5.578125 C 98.882812 -5.003906 87.597656 -7.070312 76.734375 -11.78125 C 65.867188 -16.5 56.296875 -22.859375 48.015625 -30.859375 C 37.722656 -40.867188 29.578125 -52.445312 23.578125 -65.59375 C 17.578125 -78.738281 14.289062 -92.171875 13.71875 -105.890625 C 11.144531 -107.890625 9.210938 -110.390625 7.921875 -113.390625 C 6.640625 -116.390625 6.210938 -119.457031 6.640625 -122.59375 C 7.066406 -125.738281 8.140625 -128.671875 9.859375 -131.390625 C 11.578125 -134.109375 14.148438 -135.894531 17.578125 -136.75 C 20.722656 -147.320312 25.582031 -157.179688 32.15625 -166.328125 Z M 135.03125 -156.046875 C 131.882812 -160.046875 127.023438 -163.613281 120.453125 -166.75 C 115.023438 -169.039062 108.664062 -170.1875 101.375 -170.1875 C 94.09375 -170.1875 87.878906 -168.898438 82.734375 -166.328125 C 76.160156 -163.179688 70.300781 -158.820312 65.15625 -153.25 C 60.007812 -147.675781 55.867188 -141.460938 52.734375 -134.609375 C 59.585938 -133.742188 66.441406 -132.882812 73.296875 -132.03125 C 80.160156 -131.175781 87.019531 -130.601562 93.875 -130.3125 C 97.59375 -130.3125 101.304688 -130.3125 105.015625 -130.3125 C 108.734375 -130.3125 112.453125 -130.457031 116.171875 -130.75 C 117.316406 -130.75 118.390625 -130.816406 119.390625 -130.953125 C 120.390625 -131.097656 121.460938 -131.171875 122.609375 -131.171875 C 125.171875 -131.742188 127.09375 -132.101562 128.375 -132.25 C 129.664062 -132.394531 131.03125 -132.75 132.46875 -133.3125 C 133.601562 -133.601562 135.03125 -134.035156 136.75 -134.609375 C 138.175781 -135.179688 139.03125 -135.609375 139.3125 -135.890625 C 139.601562 -136.179688 140.035156 -136.46875 140.609375 -136.75 L 141.890625 -141.890625 C 141.316406 -143.035156 140.957031 -144.109375 140.8125 -145.109375 C 140.675781 -146.109375 140.320312 -147.035156 139.75 -147.890625 C 139.46875 -148.753906 138.828125 -150.039062 137.828125 -151.75 C 136.828125 -153.46875 135.894531 -154.898438 135.03125 -156.046875 Z M 135.03125 -156.046875 "/></g></g></g></svg>